<svg id="Layer_5" enable-background="new 0 0 64 64" height="512" viewBox="0 0 64 64" width="512" xmlns="http://www.w3.org/2000/svg"><g><g><path d="m48 62h-32c0-1.1.45-2.1 1.17-2.83.73-.72 1.73-1.17 2.83-1.17h24c2.21 0 4 1.79 4 4z" fill="#cf9e76"/><path d="m60 42h2c0 8.84-7.16 16-16 16h-2-24-2c-4.42 0-8.42-1.79-11.32-4.68-2.89-2.9-4.68-6.9-4.68-11.32h2z" fill="#cf9e76"/><path d="m21.09 32.17c.38-1.81 1.99-3.17 3.91-3.17 2.21 0 4 1.79 4 4 0 .05-.01.1-.01.15.32-.09.66-.15 1.01-.15 1.46 0 2.73.79 3.42 1.96.7-.59 1.59-.96 2.58-.96.05 0 .09.01.14.01.44-1.73 1.99-3.01 3.86-3.01 2.06 0 3.74 1.57 3.96 3.58.6-.36 1.29-.58 2.04-.58 1.2 0 2.27.54 3 1.38.73-.84 1.8-1.38 3-1.38 2.21 0 4 1.79 4 4 2.21 0 4 1.79 4 4h-56v-1c0-1.91 1.34-3.5 3.13-3.9-.08-.35-.13-.72-.13-1.1 0-2.76 2.24-5 5-5 2.04 0 3.79 1.23 4.57 2.98.69-1.18 1.96-1.98 3.43-1.98.38 0 .74.07 1.09.17z" fill="#e6e9ed"/><g fill="#b4dd7f"><path d="m38.83 3.17c.72.73 1.17 1.73 1.17 2.83h-4c-1.1 0-2.1-.45-2.83-1.17-.72-.73-1.17-1.73-1.17-2.83h4c1.1 0 2.1.45 2.83 1.17z"/><path d="m44 18h4c0 1.1-.45 2.1-1.17 2.83-.73.72-1.73 1.17-2.83 1.17h-4c0-1.1.45-2.1 1.17-2.83.73-.72 1.73-1.17 2.83-1.17z"/><path d="m44 2h4c0 1.1-.45 2.1-1.17 2.83-.73.72-1.73 1.17-2.83 1.17h-4c0-1.1.45-2.1 1.17-2.83.73-.72 1.73-1.17 2.83-1.17z"/><path d="m40 22h-4c-1.1 0-2.1-.45-2.83-1.17-.72-.73-1.17-1.73-1.17-2.83h4c1.1 0 2.1.45 2.83 1.17.72.73 1.17 1.73 1.17 2.83z"/><path d="m40 14h-4c-1.1 0-2.1-.45-2.83-1.17-.72-.73-1.17-1.73-1.17-2.83h4c1.1 0 2.1.45 2.83 1.17.72.73 1.17 1.73 1.17 2.83z"/><path d="m44 10h4c0 1.1-.45 2.1-1.17 2.83-.73.72-1.73 1.17-2.83 1.17h-4c0-1.1.45-2.1 1.17-2.83.73-.72 1.73-1.17 2.83-1.17z"/><path d="m18.59 16.25.41 1.75h-4c-1.1 0-2.1-.45-2.83-1.17-.72-.73-1.17-1.73-1.17-2.83h4c1.1 0 2.1.45 2.83 1.17.06.06.13.13.18.2.19.28.38.57.58.88z"/><path d="m24 26v-4c0-1.1.45-2.1 1.17-2.83.73-.72 1.73-1.17 2.83-1.17v4c0 1.1-.45 2.1-1.17 2.83-.73.72-1.73 1.17-2.83 1.17z"/><path d="m22.33 22.75c.52 1.05 1.01 2.14 1.45 3.25h-3.78c-1.1 0-2.1-.45-2.83-1.17-.72-.73-1.17-1.73-1.17-2.83h4c.87 0 1.67.28 2.33.75z"/><path d="m23 14c0 1.98-1.44 3.63-3.34 3.95-.21-.36-.43-.72-.66-1.06v-.01-2.88c0-1.1.45-2.1 1.17-2.83.73-.72 1.73-1.17 2.83-1.17z"/><path d="m18 2v4c0 1.1-.45 2.1-1.17 2.83-.73.72-1.73 1.17-2.83 1.17v-4c0-1.1.45-2.1 1.17-2.83.73-.72 1.73-1.17 2.83-1.17z"/><path d="m12.83 7.17c.72.73 1.17 1.73 1.17 2.83h-4c-1.1 0-2.1-.45-2.83-1.17-.72-.73-1.17-1.73-1.17-2.83h4c1.1 0 2.1.45 2.83 1.17z"/></g></g><g><path d="m60.891 41c-.405-1.983-1.98-3.545-3.975-3.916-.432-2.321-2.472-4.084-4.916-4.084-1.086 0-2.138.363-3 1.018-1.224-.931-2.857-1.256-4.355-.823-.606-1.579-1.981-2.741-3.645-3.082v-7.113h3c2.757 0 5-2.243 5-5v-1h-5c-1.13 0-2.162.391-3 1.026v-3.026h3c2.757 0 5-2.243 5-5v-1h-5c-1.13 0-2.162.391-3 1.026v-3.026h3c2.757 0 5-2.243 5-5v-1h-5c-1.641 0-3.088.806-4 2.031-.912-1.225-2.359-2.031-4-2.031h-5v1c0 2.757 2.243 5 5 5h3v3.026c-.838-.635-1.87-1.026-3-1.026h-5v1c0 2.757 2.243 5 5 5h3v3.026c-.838-.635-1.87-1.026-3-1.026h-5v1c0 2.757 2.243 5 5 5h3v7.114c-1.594.328-2.941 1.411-3.585 2.922-.614.075-1.212.268-1.763.566-.957-1.041-2.294-1.608-3.752-1.601-.426-2.091-2.166-3.695-4.314-3.949-.132-.404-.26-.808-.405-1.208 2.186-.534 3.819-2.496 3.819-4.844v-5h-1c-2.717 0-4.924 2.181-4.988 4.883-.595-1.183-1.218-2.32-1.848-3.392 1.696-.813 2.836-2.521 2.836-4.491v-5h-1c-2.635 0-4.777 2.055-4.964 4.644-.875-1.244-1.646-2.263-2.223-2.996 1.861-.73 3.187-2.532 3.187-4.648v-5h-1c-2.757 0-5 2.243-5 5v.026c-.838-.635-1.87-1.026-3-1.026h-5v1c0 2.757 2.243 5 5 5h3 .53c.311.381.858 1.064 1.565 2.01-.032-.001-.062-.01-.095-.01h-5v1c0 2.757 2.243 5 5 5h4.124c.391.651.78 1.325 1.164 2.022-.097-.005-.191-.022-.288-.022h-5v1c0 2.757 2.243 5 5 5h3 .092c.155.406.301.813.441 1.223-1.387.43-2.54 1.453-3.122 2.797-1.41-.14-2.726.348-3.723 1.245-1.122-1.409-2.839-2.265-4.688-2.265-3.309 0-6 2.691-6 6 0 .138.005.277.016.417-1.792.781-3.016 2.582-3.016 4.583h-2v1c0 8.737 6.627 15.949 15.117 16.889-.688.857-1.117 1.93-1.117 3.111v1h34v-1c0-1.181-.429-2.254-1.117-3.111 8.49-.94 15.117-8.152 15.117-16.889v-1zm-24.891-36c-1.304 0-2.416-.836-2.829-2h2.829c1.304 0 2.416.836 2.829 2zm8-2h2.829c-.413 1.164-1.525 2-2.829 2h-2.829c.413-1.164 1.525-2 2.829-2zm-8 10c-1.304 0-2.416-.836-2.829-2h2.829c1.304 0 2.416.836 2.829 2zm8-2h2.829c-.413 1.164-1.525 2-2.829 2h-2.829c.413-1.164 1.525-2 2.829-2zm-8 10c-1.304 0-2.416-.836-2.829-2h2.829c1.304 0 2.416.836 2.829 2zm8-2h2.829c-.413 1.164-1.525 2-2.829 2h-2.829c.413-1.164 1.525-2 2.829-2zm-19 3c0-1.304.836-2.416 2-2.829v2.829c0 1.304-.836 2.416-2 2.829zm-15-13c-1.304 0-2.416-.836-2.829-2h2.829c1.304 0 2.416.836 2.829 2zm12 2.171v2.829c0 1.25-.761 2.329-1.876 2.776-.042-.066-.082-.126-.124-.192v-2.584c0-1.304.836-2.416 2-2.829zm-7-5.171c0-1.304.836-2.416 2-2.829v2.829c0 1.304-.836 2.416-2 2.829zm2.829 11h-2.829c-1.304 0-2.416-.836-2.829-2h2.829c.859 0 1.631.368 2.178.949.183.272.367.548.555.836.032.071.069.14.096.215zm-.658 6h2.829c.548 0 1.072.154 1.536.433.252.516.494 1.038.728 1.567h-2.264c-1.304 0-2.416-.836-2.829-2zm-9.823 15.077.979-.218-.22-.978c-.072-.316-.107-.604-.107-.881 0-2.206 1.794-4 4-4 1.576 0 3.01.936 3.652 2.384l.788 1.776.988-1.673c.549-.931 1.511-1.487 2.572-1.487.243 0 .502.042.815.131l1.031.293.222-1.048c.29-1.377 1.524-2.376 2.932-2.376 1.654 0 3 1.346 3.002 2.938l-.07 1.52 1.308-.345c.292-.077.534-.113.76-.113 1.056 0 2.016.551 2.566 1.475l.605 1.015.901-.764c.39-.331 1.041-.725 1.859-.729l.977.042.199-.778c.339-1.331 1.529-2.261 2.893-2.261 1.526 0 2.8 1.154 2.963 2.684l.166 1.556 1.342-.804c1.27-.759 2.831-.479 3.776.602l.753.86.752-.861c.586-.668 1.384-1.037 2.248-1.037 1.654 0 3 1.346 3 3v1h1c1.302 0 2.402.839 2.816 2h-53.816c0-1.391.987-2.62 2.348-2.923zm9.823 22.923c.413-1.164 1.525-2 2.829-2h24c1.304 0 2.416.836 2.829 2zm28.829-4h-2-24-2c-7.935 0-14.45-6.194-14.967-14h57.934c-.517 7.806-7.032 14-14.967 14z"/><path d="m57.816 47.418-1.816-.836c-1.795 3.899-5.72 6.418-10 6.418h-2v2h2c5.059 0 9.697-2.976 11.816-7.582z"/><path d="m11 37h2v2h-2z"/><path d="m22 34h2v2h-2z"/><path d="m26 37h2v2h-2z"/><path d="m37 36h2v2h-2z"/><path d="m43 37h2v2h-2z"/><path d="m50 37h2v2h-2z"/><path d="m16 37h2v2h-2z"/><path d="m40 53h2v2h-2z"/></g></g></svg>